<svg width="56" height="56" viewBox="0 0 56 56" fill="none" xmlns="http://www.w3.org/2000/svg">
<g clip-path="url(#clip0_18_197)">
<rect width="56" height="56" rx="14" fill="#615EF0"/>
<path d="M27.979 36.418C25.627 36.418 23.884 35.809 22.75 34.591C21.63 33.359 21.07 31.448 21.07 28.858C21.07 26.352 21.658 24.483 22.834 23.251C24.01 22.005 25.76 21.382 28.084 21.382C28.532 21.382 28.994 21.417 29.47 21.487C29.96 21.543 30.422 21.634 30.856 21.76C31.29 21.872 31.647 22.012 31.927 22.18C32.095 22.278 32.228 22.383 32.326 22.495C32.424 22.607 32.473 22.726 32.473 22.852C32.473 22.992 32.438 23.174 32.368 23.398C32.312 23.608 32.235 23.818 32.137 24.028C32.039 24.238 31.927 24.413 31.801 24.553C31.675 24.693 31.549 24.763 31.423 24.763C31.255 24.763 31.017 24.714 30.709 24.616C30.401 24.504 30.023 24.399 29.575 24.301C29.141 24.203 28.623 24.154 28.021 24.154C27.195 24.154 26.509 24.329 25.963 24.679C25.431 25.029 25.032 25.554 24.766 26.254C24.514 26.954 24.388 27.829 24.388 28.879C24.388 29.929 24.521 30.811 24.787 31.525C25.053 32.225 25.452 32.757 25.984 33.121C26.516 33.485 27.181 33.667 27.979 33.667C28.483 33.667 28.938 33.625 29.344 33.541C29.75 33.457 30.107 33.359 30.415 33.247C30.723 33.135 30.982 33.037 31.192 32.953C31.402 32.869 31.556 32.827 31.654 32.827C31.822 32.827 31.969 32.904 32.095 33.058C32.221 33.212 32.326 33.394 32.41 33.604C32.494 33.814 32.557 34.024 32.599 34.234C32.641 34.43 32.662 34.57 32.662 34.654C32.662 34.892 32.606 35.067 32.494 35.179C32.382 35.291 32.165 35.438 31.843 35.62C31.507 35.802 31.108 35.956 30.646 36.082C30.198 36.194 29.736 36.278 29.26 36.334C28.798 36.39 28.371 36.418 27.979 36.418ZM24.115 68.418C22.981 68.418 22.176 68.124 21.7 67.536C21.238 66.934 21.007 66.206 21.007 65.352C21.007 64.918 21.07 64.477 21.196 64.029C21.336 63.567 21.609 63.14 22.015 62.748C22.421 62.356 23.023 62.041 23.821 61.803C24.633 61.565 25.704 61.446 27.034 61.446V60.816C27.034 60.522 26.978 60.284 26.866 60.102C26.754 59.92 26.579 59.787 26.341 59.703C26.103 59.605 25.788 59.556 25.396 59.556C24.892 59.556 24.437 59.612 24.031 59.724C23.639 59.822 23.303 59.927 23.023 60.039C22.757 60.151 22.554 60.207 22.414 60.207C22.316 60.207 22.218 60.144 22.12 60.018C22.022 59.878 21.931 59.717 21.847 59.535C21.777 59.339 21.721 59.15 21.679 58.968C21.637 58.786 21.616 58.646 21.616 58.548C21.616 58.352 21.735 58.17 21.973 58.002C22.211 57.834 22.526 57.68 22.918 57.54C23.31 57.4 23.744 57.295 24.22 57.225C24.696 57.141 25.165 57.099 25.627 57.099C26.453 57.099 27.153 57.19 27.727 57.372C28.301 57.54 28.763 57.785 29.113 58.107C29.477 58.415 29.736 58.786 29.89 59.22C30.058 59.64 30.142 60.102 30.142 60.606V64.554C30.142 65.282 30.163 65.842 30.205 66.234C30.247 66.612 30.289 66.899 30.331 67.095C30.373 67.277 30.394 67.445 30.394 67.599C30.394 67.725 30.296 67.83 30.1 67.914C29.918 67.998 29.687 68.068 29.407 68.124C29.141 68.18 28.875 68.222 28.609 68.25C28.357 68.264 28.168 68.271 28.042 68.271C27.818 68.271 27.65 68.194 27.538 68.04C27.44 67.872 27.37 67.676 27.328 67.452C27.286 67.214 27.244 67.004 27.202 66.822C27.16 66.906 27.013 67.081 26.761 67.347C26.523 67.599 26.18 67.844 25.732 68.082C25.298 68.306 24.759 68.418 24.115 68.418ZM25.144 65.961C25.41 65.961 25.662 65.905 25.9 65.793C26.152 65.681 26.376 65.527 26.572 65.331C26.768 65.121 26.922 64.89 27.034 64.638V63.483C26.53 63.483 26.096 63.518 25.732 63.588C25.368 63.658 25.06 63.756 24.808 63.882C24.57 64.008 24.388 64.169 24.262 64.365C24.15 64.561 24.094 64.785 24.094 65.037C24.094 65.303 24.178 65.527 24.346 65.709C24.528 65.877 24.794 65.961 25.144 65.961ZM22.624 100.292C22.176 100.292 21.847 100.236 21.637 100.124C21.441 99.998 21.343 99.823 21.343 99.599V92.921C21.343 92.305 21.322 91.815 21.28 91.451C21.252 91.073 21.217 90.779 21.175 90.569C21.147 90.359 21.133 90.177 21.133 90.023C21.133 89.869 21.231 89.743 21.427 89.645C21.637 89.547 21.882 89.477 22.162 89.435C22.456 89.379 22.729 89.344 22.981 89.33C23.247 89.302 23.436 89.288 23.548 89.288C23.716 89.288 23.842 89.33 23.926 89.414C24.01 89.484 24.08 89.617 24.136 89.813C24.206 90.009 24.276 90.303 24.346 90.695C24.542 90.429 24.794 90.177 25.102 89.939C25.424 89.687 25.781 89.484 26.173 89.33C26.579 89.176 27.006 89.099 27.454 89.099C27.972 89.099 28.427 89.169 28.819 89.309C29.225 89.435 29.554 89.631 29.806 89.897C30.072 90.149 30.261 90.471 30.373 90.863C30.555 90.569 30.8 90.289 31.108 90.023C31.43 89.757 31.801 89.54 32.221 89.372C32.641 89.19 33.089 89.099 33.565 89.099C34.293 89.099 34.888 89.225 35.35 89.477C35.826 89.715 36.176 90.086 36.4 90.59C36.638 91.08 36.757 91.717 36.757 92.501V99.599C36.757 99.823 36.652 99.998 36.442 100.124C36.246 100.236 35.924 100.292 35.476 100.292H34.888C34.44 100.292 34.111 100.236 33.901 100.124C33.705 99.998 33.607 99.823 33.607 99.599V92.963C33.607 92.557 33.509 92.242 33.313 92.018C33.131 91.78 32.809 91.661 32.347 91.661C32.179 91.661 32.004 91.696 31.822 91.766C31.654 91.822 31.486 91.913 31.318 92.039C31.15 92.165 30.982 92.326 30.814 92.522C30.66 92.704 30.52 92.921 30.394 93.173L30.415 91.472C30.485 91.654 30.534 91.829 30.562 91.997C30.604 92.165 30.625 92.34 30.625 92.522V99.599C30.625 99.823 30.52 99.998 30.31 100.124C30.114 100.236 29.792 100.292 29.344 100.292H28.756C28.308 100.292 27.979 100.236 27.769 100.124C27.573 99.998 27.475 99.823 27.475 99.599V92.963C27.475 92.557 27.377 92.242 27.181 92.018C26.999 91.78 26.677 91.661 26.215 91.661C25.991 91.661 25.767 91.717 25.543 91.829C25.319 91.927 25.116 92.067 24.934 92.249C24.752 92.431 24.605 92.641 24.493 92.879V99.599C24.493 99.823 24.388 99.998 24.178 100.124C23.982 100.236 23.66 100.292 23.212 100.292H22.624Z" fill="white"/>
</g>
<defs>
<clipPath id="clip0_18_197">
<rect width="56" height="56" rx="14" fill="white"/>
</clipPath>
</defs>
</svg>
